# xmcd
#
# Track frame offsets: 
#        150
#        17012
#        35344
#        55746
#        74065
#        93414
#        110036
#        123395
#        138252
#        152474
#
# Disc length: 2246 seconds
#
# Revision: 1
# Processed by: cddbd v1.5.2PL0 Copyright (c) Steve Scherf et al.
# Submitted via: ExactAudioCopy v0.99pb5
#
DISCID=8308c40a
DTITLE=Estrellas Caiman - Descarga Brava 2000
DYEAR=2000
DGENRE=Salsa
TTITLE0=El Verdadero Son
TTITLE1=Mi Gallo
TTITLE2=Tumbao Caimán
TTITLE3=Renovando
TTITLE4=Despierta Emilia
TTITLE5=Café
TTITLE6=Baila Como Yo
TTITLE7=Soulsa
TTITLE8=El Cacahual
TTITLE9=Bombonchara
EXTD=YEAR: 2000
EXTT0=
EXTT1=
EXTT2=
EXTT3=
EXTT4=
EXTT5=
EXTT6=
EXTT7=
EXTT8=
EXTT9=
PLAYORDER=
